<svg width="16" height="11" xmlns="http://www.w3.org/2000/svg">
    <g fill-rule="nonzero" fill="none">
        <path d="M5.063 10.985c.22 0 .438-.035.653-.105.216-.07.518-.182.906-.336l.097-.409c-.082.03-.2.059-.353.087a2.14 2.14 0 01-.352.041c-.246 0-.423-.044-.53-.13-.108-.088-.162-.253-.162-.496 0-.098.02-.235.058-.412.039-.177.076-.334.11-.47l.543-2.051c.052-.192.09-.386.113-.581.024-.196.036-.333.036-.41 0-.383-.116-.693-.35-.93-.232-.236-.555-.354-.97-.354-.443 0-.84.09-1.189.272-.35.18-.746.448-1.19.802h-.026L3.492 1.08 3.427.985l-2.399.147-.09.39c.142.017.284.032.426.045.143.012.255.038.337.076a.486.486 0 01.22.189.673.673 0 01.077.354c0 .077-.007.15-.022.218l-.055.249L0 10.877h1.203l1.093-4.69c.288-.316.593-.56.915-.735.32-.175.62-.262.895-.262.272 0 .477.083.615.249.138.166.207.392.207.677 0 .09-.014.209-.043.358-.028.15-.065.315-.113.498L4.14 9.356a4.326 4.326 0 00-.084.4 2.066 2.066 0 00-.026.309c0 .26.086.478.258.655.173.177.431.265.776.265z" fill="#C41E0D"/>
        <path d="M11.754 11c.894 0 1.664-.203 2.312-.61.647-.407 1.167-1.085 1.559-2.033l-.513-.243c-.11.297-.25.57-.424.823a3.563 3.563 0 01-.602.674c-.228.189-.497.34-.807.455-.31.115-.65.172-1.018.172-.493 0-.938-.108-1.337-.324a3.231 3.231 0 01-1.036-.896 4.327 4.327 0 01-.674-1.346 5.69 5.69 0 01-.236-1.682c0-.692.075-1.32.226-1.881.15-.562.358-1.025.622-1.39.278-.377.608-.663.988-.856.38-.193.792-.29 1.235-.29.387 0 .731.087 1.032.26.301.173.56.412.78.718.196.27.367.599.513.988.145.389.255.75.328 1.082h.56l-.061-3.412h-.547l-.28.459a4.865 4.865 0 00-1.108-.493 4.491 4.491 0 00-1.3-.175c-.642 0-1.246.121-1.812.364a4.314 4.314 0 00-1.47 1.032c-.42.45-.748.985-.985 1.608-.237.623-.355 1.316-.355 2.08 0 .765.12 1.451.362 2.06.242.61.565 1.125.971 1.548A4.273 4.273 0 0011.754 11z" fill="#000"/>
    </g>
</svg>