<?xml version="1.0" encoding="UTF-8"?>
<svg width="200px" height="200px" viewBox="0 0 200 200" version="1.1" xmlns="http://www.w3.org/2000/svg" xmlns:xlink="http://www.w3.org/1999/xlink">
    <title>favicon_200x200</title>
    <g id="favicon_200x200" stroke="none" stroke-width="1" fill="none" fill-rule="evenodd">
        <g id="Group" transform="translate(0.000000, 36.000000)" fill-rule="nonzero">
            <g id="Group-2">
                <path d="M64.8103946,127.810056 C67.6246391,127.810056 70.4112929,127.360216 73.1703561,126.460535 C75.9294193,125.560855 79.7921078,124.129545 84.7584216,122.166605 L84.7584216,122.166605 L86,116.932101 C84.951556,117.313783 83.4478665,117.681834 81.4889317,118.036254 C79.5299968,118.390674 78.0263073,118.567883 76.9778633,118.567883 C73.8325313,118.567883 71.5700995,118.008991 70.1905679,116.891206 C68.8110363,115.773421 68.1212705,113.660535 68.1212705,110.552548 C68.1212705,109.298448 68.3695861,107.539981 68.8662175,105.277149 C69.3628489,103.014316 69.8318896,101.010482 70.2733397,99.2656469 L70.2733397,99.2656469 L77.226179,73.0113338 C77.8883542,70.5576597 78.3711902,68.0767225 78.6746872,65.5685223 C78.9781842,63.0603221 79.1299326,61.3154872 79.1299326,60.3340175 C79.1299326,55.4266693 77.6400385,51.4598961 74.6602502,48.433698 C71.680462,45.4075 67.5418672,43.8944009 62.2444658,43.8944009 C56.5607956,43.8944009 51.4841193,45.0530804 47.014437,47.3704393 C42.5447546,49.6877981 37.4680783,53.1093104 31.7844081,57.634976 L31.7844081,57.634976 L31.4533205,57.634976 L44.6968239,1.03689293 L43.8691049,-0.189944134 L13.1607315,1.69120603 L12.0019249,6.68034341 C13.8229066,6.89844777 15.6438884,7.08928909 17.4648701,7.25286737 C19.2858518,7.41644564 20.7205646,7.74360219 21.7690087,8.23433702 C22.9829965,8.77959793 23.921078,9.58385778 24.5832531,10.6471166 C25.2454283,11.7103754 25.5765159,13.2234744 25.5765159,15.1864137 C25.5765159,16.1678833 25.4799487,17.0948269 25.2868142,17.9672444 C25.0936798,18.8396618 24.8591594,19.9029206 24.5832531,21.1570207 L24.5832531,21.1570207 L0,126.419641 L15.3955727,126.419641 L29.3840231,66.3864137 C33.0811678,62.3514829 36.9852422,59.2162326 41.0962464,56.9806629 C45.2072506,54.7450931 49.0285531,53.6273083 52.560154,53.6273083 C56.0365736,53.6273083 58.6576837,54.690567 60.4234841,56.8170846 C62.1892846,58.9436022 63.0721848,61.833485 63.0721848,65.4867332 C63.0721848,66.6317811 62.8928457,68.1585117 62.5341675,70.0669249 C62.1754893,71.9753381 61.6926532,74.1018557 61.0856593,76.4464776 L61.0856593,76.4464776 L52.9740135,106.953826 C52.4773821,108.916765 52.1187039,110.620705 51.8979788,112.065647 C51.6772538,113.510588 51.5668912,114.832846 51.5668912,116.03242 C51.5668912,119.358512 52.6705165,122.152974 54.8777671,124.415807 C57.0850176,126.678639 60.3958935,127.810056 64.8103946,127.810056 Z" id="heim" fill="#C41E0D"></path>
                <path d="M150.457473,128 C161.894853,128 171.756675,125.396269 180.04294,120.188806 C188.329205,114.981344 194.981558,106.307035 200,94.16588 L200,94.16588 L193.435178,91.0586649 C192.034682,94.8563722 190.225709,98.3663745 188.008258,101.588672 C185.790806,104.810969 183.223231,107.68802 180.305533,110.219825 C177.387834,112.636548 173.944949,114.578557 169.976879,116.045853 C166.008808,117.513149 161.661437,118.246797 156.934765,118.246797 C150.632535,118.246797 144.928434,116.865813 139.822461,114.103844 C134.716488,111.341875 130.296174,107.515397 126.561519,102.62441 C122.826865,97.6758822 119.952931,91.9361654 117.939719,85.4052596 C115.926507,78.8743538 114.919901,71.6961115 114.919901,63.8705327 C114.919901,55.0092156 115.882742,46.9822432 117.808423,39.7896156 C119.734104,32.5969881 122.38921,26.670263 125.773741,22.0094403 C129.333333,17.1759946 133.549408,13.5221398 138.421965,11.0478759 C143.294522,8.57361205 148.560969,7.33648011 154.221305,7.33648011 C159.181393,7.33648011 163.587118,8.44414475 167.438481,10.659474 C171.289843,12.8748033 174.61602,15.9388627 177.417011,19.8516521 C179.926232,23.3041133 182.114506,27.518993 183.981833,32.4962913 C185.84916,37.4735896 187.249656,42.0912565 188.18332,46.349292 L188.18332,46.349292 L195.360859,46.349292 L194.57308,2.67565745 L187.570603,2.67565745 L183.981833,8.54484154 C179.488577,5.84041358 174.761905,3.74016633 169.801817,2.2440998 C164.841729,0.748033266 159.298101,0 153.170933,0 C144.943022,0 137.21112,1.55360755 129.975227,4.66082266 C122.739334,7.76803776 116.466281,12.1699258 111.156069,17.8664869 C105.787503,23.6205889 101.586017,30.4823556 98.5516102,38.4517869 C95.5172034,46.4212183 94,55.2969207 94,65.0788941 C94,74.8608676 95.5463804,83.6502585 98.6391412,91.4470668 C101.731902,99.243875 105.875034,105.846707 111.068538,111.255563 C116.320396,116.664419 122.345445,120.807372 129.143683,123.684423 C135.941921,126.561474 143.046518,128 150.457473,128 Z" id="Path" fill="#000000"></path>
            </g>
        </g>
    </g>
</svg>