<?xml version="1.0" encoding="UTF-8"?>
<svg width="276px" height="56px" viewBox="0 0 276 56" version="1.1" xmlns="http://www.w3.org/2000/svg" xmlns:xlink="http://www.w3.org/1999/xlink">
    <title>logo_color</title>
    <g id="logo_color" stroke="none" stroke-width="1" fill="none" fill-rule="evenodd">
        <g id="Group" transform="translate(1.000000, 10.000000)" fill-rule="nonzero">
            <path d="M16.4935447,35.7696701 C17.2097395,35.7696701 17.9189128,35.6545051 18.6210646,35.4241751 C19.3232163,35.1938452 20.3062288,34.8274112 21.5701019,34.3248731 L21.5701019,34.3248731 L21.8860702,32.9847716 C21.6192525,33.0824873 21.2365798,33.1767132 20.7380521,33.2674492 C20.2395243,33.3581853 19.8568516,33.4035533 19.590034,33.4035533 C18.789581,33.4035533 18.2138165,33.2604695 17.8627407,32.974302 C17.5116648,32.6881345 17.3361268,32.1472081 17.3361268,31.3515228 C17.3361268,31.0304569 17.3993205,30.5802665 17.5257078,30.0009518 C17.6520951,29.4216371 17.7714609,28.9086294 17.8838052,28.4619289 L17.8838052,28.4619289 L19.6532276,21.7404822 C19.8217441,21.1123096 19.9446206,20.4771574 20.0218573,19.8350254 C20.099094,19.1928934 20.1377123,18.7461929 20.1377123,18.4949239 C20.1377123,17.2385787 19.7585504,16.223033 19.0002265,15.4482868 C18.2419026,14.6735406 17.188675,14.2861675 15.8405436,14.2861675 C14.394111,14.2861675 13.1021518,14.5828046 11.9646659,15.1760787 C10.8271801,15.7693528 9.53522084,16.6453046 8.08878822,17.803934 L8.08878822,17.803934 L8.00453001,17.803934 L11.3748584,3.31408629 L11.1642129,3 L3.34926387,3.48159898 L3.05436014,4.75888325 C3.51778029,4.81472081 3.98120045,4.86357868 4.44462061,4.90545685 C4.90804077,4.94733503 5.27315968,5.03109137 5.53997735,5.15672589 C5.84892412,5.2963198 6.08765572,5.50222081 6.25617214,5.77442893 C6.42468856,6.04663706 6.50894677,6.43401015 6.50894677,6.93654822 C6.50894677,7.18781726 6.48437146,7.4251269 6.43522084,7.64847716 C6.38607022,7.87182741 6.32638732,8.14403553 6.25617214,8.46510152 L6.25617214,8.46510152 L0,35.4137056 L3.9180068,35.4137056 L7.47791619,20.0444162 C8.41879955,19.0114213 9.41234428,18.2087563 10.4585504,17.6364213 C11.5047565,17.0640863 12.4772367,16.7779188 13.3759909,16.7779188 C14.2607022,16.7779188 14.9277463,17.0501269 15.3771234,17.5945431 C15.8265006,18.1389594 16.0511891,18.8788071 16.0511891,19.8140863 C16.0511891,20.1072335 16.0055493,20.4980964 15.9142695,20.9866751 C15.8229898,21.4752538 15.7001133,22.0196701 15.5456399,22.6199239 L15.5456399,22.6199239 L13.4813137,30.430203 C13.3549264,30.9327411 13.2636467,31.3689721 13.2074745,31.7388959 C13.1513024,32.1088198 13.1232163,32.447335 13.1232163,32.7544416 C13.1232163,33.6059645 13.404077,34.3213832 13.9657984,34.900698 C14.5275198,35.4800127 15.3701019,35.7696701 16.4935447,35.7696701 Z M32.2287656,36 C34.0403171,36 35.788675,35.4904822 37.4738392,34.4714467 C39.1590034,33.4524112 40.5633069,32.0913706 41.6867497,30.3883249 L41.6867497,30.3883249 L40.4860702,29.5088832 C39.4468856,30.8908629 38.3901472,31.9308376 37.315855,32.6288071 C36.2415629,33.3267766 35.002265,33.6757614 33.5979615,33.6757614 C32.0110985,33.6757614 30.8069083,33.0929569 29.9853907,31.9273477 C29.1638732,30.7617386 28.7531144,29.0761421 28.7531144,26.8705584 C30.3680634,26.6751269 31.8425821,26.4308376 33.1766704,26.1376904 C34.5107588,25.8445431 35.8308041,25.4606599 37.1368063,24.9860406 C38.9202718,24.357868 40.2789354,23.5133249 41.2127973,22.4524112 C42.1466591,21.3914975 42.61359,20.1211929 42.61359,18.6414975 C42.61359,17.3711929 42.1255946,16.3277284 41.1496036,15.5111041 C40.1736127,14.6944797 38.6745187,14.2861675 36.6523216,14.2861675 C34.8267271,14.2861675 33.1591166,14.6840102 31.6494904,15.4796954 C30.1398641,16.2753807 28.8654587,17.322335 27.8262741,18.6205584 C26.7590034,19.9467005 25.9480181,21.4089467 25.3933182,23.007297 C24.8386183,24.6056472 24.5612684,26.284264 24.5612684,28.0431472 C24.5612684,30.5837563 25.2177803,32.5450508 26.5308041,33.9270305 C27.8438279,35.3090102 29.7431484,36 32.2287656,36 Z M28.8795017,25.4048223 C29.2586636,22.6548223 30.1609287,20.3585025 31.5862967,18.5158629 C33.0116648,16.6732234 34.5669309,15.7519036 36.2520951,15.7519036 C36.5469989,15.7519036 36.8348811,15.7728426 37.1157418,15.8147208 C37.3966025,15.856599 37.6634202,15.9612944 37.9161948,16.1288071 C38.1549264,16.2823604 38.3515289,16.5161802 38.5060023,16.8302665 C38.6604757,17.1443528 38.7377123,17.5736041 38.7377123,18.1180203 C38.7377123,19.4162437 38.4533409,20.5364848 37.884598,21.4787437 C37.315855,22.4210025 36.4486976,23.1922589 35.2831257,23.7925127 C34.4686297,24.2112944 33.4434881,24.5498096 32.207701,24.8080584 C30.9719139,25.0663071 29.8625142,25.2652284 28.8795017,25.4048223 Z M53.8409966,9.34454315 C54.6133635,9.34454315 55.2593431,9.04790609 55.7789354,8.45463198 C56.2985277,7.86135787 56.5583239,7.16687817 56.5583239,6.37119289 C56.5583239,5.65926396 56.3055493,5.03458122 55.8,4.49714467 C55.2944507,3.95970812 54.6414496,3.69098985 53.8409966,3.69098985 C53.1248018,3.69098985 52.5069083,3.97715736 51.987316,4.54949239 C51.4677237,5.12182741 51.2079275,5.79187817 51.2079275,6.55964467 C51.2079275,7.28553299 51.4677237,7.93115482 51.987316,8.49651015 C52.5069083,9.06186548 53.1248018,9.34454315 53.8409966,9.34454315 Z M49.6702152,35.8534264 C50.2178935,35.8534264 50.8779162,35.7522208 51.6502831,35.5498096 C52.4226501,35.3473985 53.4548131,34.9879442 54.7467724,34.4714467 L54.7467724,34.4714467 L55.0627407,33.1313452 C54.795923,33.2290609 54.4132503,33.3128173 53.9147225,33.3826142 C53.4161948,33.4524112 53.0335221,33.4873096 52.7667044,33.4873096 C51.9662514,33.4873096 51.3869762,33.340736 51.0288788,33.0475888 C50.6707814,32.7544416 50.4917327,32.2100254 50.4917327,31.4143401 C50.4917327,31.0793147 50.5443941,30.6500635 50.6497169,30.1265863 C50.7550396,29.6031091 50.8779162,29.0691624 51.0183465,28.5247462 L51.0183465,28.5247462 L53.2722537,19.6256345 C53.384598,19.1928934 53.4688562,18.7601523 53.5250283,18.3274112 C53.5812005,17.8946701 53.6092865,17.552665 53.6092865,17.3013959 C53.6092865,16.3800761 53.3494904,15.6472081 52.8298981,15.1027919 C52.3103058,14.5583756 51.4747452,14.2861675 50.3232163,14.2861675 C49.817667,14.2861675 49.1295583,14.4048223 48.2588901,14.642132 C47.388222,14.8794416 46.4052095,15.2423858 45.3098528,15.7309645 L45.3098528,15.7309645 L44.9938845,17.071066 C45.2607022,17.001269 45.6503964,16.9175127 46.1629672,16.819797 C46.6755379,16.7220812 47.0862967,16.6732234 47.3952435,16.6732234 C48.1956965,16.6732234 48.7258211,16.8023477 48.9856172,17.0605964 C49.2454134,17.3188452 49.3753114,17.8388325 49.3753114,18.6205584 C49.3753114,19.0114213 49.3226501,19.4860406 49.2173273,20.0444162 C49.1120045,20.6027919 49.003171,21.126269 48.8908267,21.6148477 L48.8908267,21.6148477 L46.6579841,30.5139594 C46.5315968,31.0444162 46.4403171,31.4841371 46.384145,31.8331218 C46.3279728,32.1821066 46.2998867,32.517132 46.2998867,32.838198 C46.2998867,33.6897208 46.5807475,34.4051396 47.1424689,34.9844543 C47.7041903,35.563769 48.5467724,35.8534264 49.6702152,35.8534264 Z M87.6074745,35.7696701 C88.1551529,35.7696701 88.8151755,35.6684645 89.5875425,35.4660533 C90.3599094,35.2636421 91.3920725,34.9041878 92.6840317,34.3876904 L92.6840317,34.3876904 L93,33.0475888 C92.7331823,33.1453046 92.3469989,33.2290609 91.8414496,33.2988579 C91.3359003,33.3686548 90.9497169,33.4035533 90.6828992,33.4035533 C89.8824462,33.4035533 89.3137033,33.2604695 88.9766704,32.974302 C88.6396376,32.6881345 88.4711212,32.1472081 88.4711212,31.3515228 C88.4711212,31.0304569 88.5272933,30.5802665 88.6396376,30.0009518 C88.7519819,29.4216371 88.8713477,28.9086294 88.997735,28.4619289 L88.997735,28.4619289 L90.7671574,21.7404822 C90.9356738,21.1123096 91.0585504,20.4771574 91.1357871,19.8350254 C91.2130238,19.1928934 91.2516421,18.7461929 91.2516421,18.4949239 C91.2516421,17.2385787 90.890034,16.223033 90.1668177,15.4482868 C89.4436014,14.6735406 88.4079275,14.2861675 87.0597961,14.2861675 C85.5010193,14.2861675 84.1353341,14.6072335 82.9627407,15.2493655 C81.7901472,15.8914975 80.4525481,16.8337563 78.9499434,18.0761421 L78.9499434,18.0761421 L78.8656852,18.0761421 C78.7673839,16.9873096 78.3285391,16.0834391 77.5491506,15.3645305 C76.7697622,14.6456218 75.7551529,14.2861675 74.5053228,14.2861675 C73.0308041,14.2861675 71.7599094,14.5653553 70.6926387,15.123731 C69.6253681,15.6821066 68.2631937,16.6104061 66.6061155,17.9086294 L66.6061155,17.9086294 L66.4797282,17.9086294 C66.4516421,16.8616751 66.2023783,16.0345812 65.7319366,15.4273477 C65.2614949,14.8201142 64.4645527,14.5164975 63.3411099,14.5164975 C62.7372593,14.5164975 62.014043,14.6351523 61.1714609,14.8724619 C60.3288788,15.1097716 59.3599094,15.4727157 58.2645527,15.9612944 L58.2645527,15.9612944 L57.9485844,17.3013959 C58.215402,17.231599 58.5910532,17.1408629 59.0755379,17.0291878 C59.5600227,16.9175127 59.9567384,16.8616751 60.2656852,16.8616751 C61.0380521,16.8616751 61.5576444,16.9907995 61.8244621,17.2490482 C62.0912797,17.507297 62.2246886,18.0412437 62.2246886,18.8508883 C62.2246886,19.2417513 62.1720272,19.7163706 62.0667044,20.2747462 C61.9613817,20.8331218 61.8525481,21.356599 61.7402039,21.8451777 L61.7402039,21.8451777 L58.6015855,35.4137056 L62.5195923,35.4137056 L66.0795017,20.0444162 C67.3574179,18.6624365 68.4808607,17.7725254 69.4498301,17.3746827 C70.4187995,16.9768401 71.3035108,16.7779188 72.1039638,16.7779188 C72.988675,16.7779188 73.6592299,17.0361675 74.1156285,17.552665 C74.5720272,18.0691624 74.8002265,18.7810914 74.8002265,19.6884518 C74.8002265,19.8559645 74.7686297,20.1107234 74.705436,20.4527284 C74.6422424,20.7947335 74.5755379,21.1192893 74.5053228,21.4263959 L74.5053228,21.4263959 L71.198188,35.4137056 L75.1161948,35.4137056 L78.781427,19.8978426 C79.9189128,18.697335 80.9405436,17.8772208 81.8463194,17.4375 C82.7520951,16.9977792 83.6754247,16.7779188 84.616308,16.7779188 C85.5010193,16.7779188 86.1469989,17.0501269 86.5542469,17.5945431 C86.9614949,18.1389594 87.1651189,18.8788071 87.1651189,19.8140863 C87.1651189,20.1072335 87.119479,20.4980964 87.0281993,20.9866751 C86.9369196,21.4752538 86.814043,22.0196701 86.6595696,22.6199239 L86.6595696,22.6199239 L84.5952435,30.430203 C84.4688562,30.9327411 84.3775764,31.3689721 84.3214043,31.7388959 C84.2652322,32.1088198 84.2371461,32.447335 84.2371461,32.7544416 C84.2371461,33.6059645 84.5180068,34.3213832 85.0797282,34.900698 C85.6414496,35.4800127 86.4840317,35.7696701 87.6074745,35.7696701 Z" id="heim" fill="#C41E0D"></path>
            <path d="M117.9654,36 C120.997151,36 123.611262,35.2984496 125.807734,33.8953488 C128.004206,32.4922481 129.767571,30.1550388 131.097829,26.8837209 L131.097829,26.8837209 L129.357666,26.0465116 C128.986431,27.0697674 128.50692,28.0155039 127.919132,28.8837209 C127.331343,29.751938 126.650746,30.5271318 125.877341,31.2093023 C125.103935,31.8604651 124.191316,32.3837209 123.139484,32.7790698 C122.087653,33.1744186 120.935278,33.372093 119.682361,33.372093 C118.011805,33.372093 116.499796,33 115.146336,32.255814 C113.792877,31.5116279 112.621167,30.4806202 111.631208,29.1627907 C110.641248,27.8294574 109.879444,26.2829457 109.345794,24.5232558 C108.812144,22.7635659 108.545319,20.8294574 108.545319,18.7209302 C108.545319,16.3333333 108.800543,14.1705426 109.310991,12.2325581 C109.821438,10.2945736 110.525237,8.69767442 111.422388,7.44186047 C112.365943,6.13953488 113.483514,5.15503876 114.775102,4.48837209 C116.066689,3.82170543 117.462687,3.48837209 118.963094,3.48837209 C120.277883,3.48837209 121.445726,3.78682171 122.466621,4.38372093 C123.487517,4.98062016 124.369199,5.80620155 125.111669,6.86046512 C125.776798,7.79069767 126.356852,8.92635659 126.851832,10.2674419 C127.346811,11.6085271 127.718046,12.8527132 127.965536,14 L127.965536,14 L129.868114,14 L129.659294,2.23255814 L127.803121,2.23255814 L126.851832,3.81395349 C125.660787,3.08527132 124.40787,2.51937984 123.09308,2.11627907 C121.77829,1.71317829 120.30882,1.51162791 118.684668,1.51162791 C116.503664,1.51162791 114.454138,1.93023256 112.536092,2.76744186 C110.618046,3.60465116 108.955224,4.79069767 107.547626,6.3255814 C106.124559,7.87596899 105.010855,9.7248062 104.206513,11.872093 C103.402171,14.0193798 103,16.4108527 103,19.0465116 C103,21.6821705 103.409905,24.0503876 104.229715,26.1511628 C105.049525,28.251938 106.147761,30.0310078 107.524423,31.4883721 C108.916554,32.9457364 110.513636,34.0620155 112.315672,34.8372093 C114.117707,35.6124031 116.00095,36 117.9654,36 Z M145.436771,35.2325581 L145.436771,33.6976744 C144.988195,33.6666667 144.458412,33.6124031 143.847422,33.5348837 C143.236431,33.4573643 142.737585,33.3410853 142.350882,33.1860465 C141.902307,33.0155039 141.573609,32.7596899 141.36479,32.4186047 C141.15597,32.0775194 141.05156,31.6356589 141.05156,31.0930233 L141.05156,31.0930233 L141.05156,17.744186 C141.732157,16.6589147 142.559701,15.8217054 143.534193,15.2325581 C144.508684,14.6434109 145.35943,14.3488372 146.086431,14.3488372 C146.040027,14.627907 145.989756,14.9069767 145.935617,15.1860465 C145.881479,15.4651163 145.85441,15.7751938 145.85441,16.1162791 C145.85441,16.6589147 146.082564,17.1550388 146.538874,17.6046512 C146.995183,18.0542636 147.656445,18.2790698 148.522659,18.2790698 C149.327001,18.2790698 149.922524,17.9728682 150.309227,17.3604651 C150.695929,16.748062 150.889281,16.0465116 150.889281,15.255814 C150.889281,14.1860465 150.583786,13.3333333 149.972795,12.6976744 C149.361805,12.0620155 148.569064,11.744186 147.594573,11.744186 C146.620081,11.744186 145.545047,12.0697674 144.369471,12.7209302 C143.193894,13.372093 142.126594,14.3255814 141.167571,15.5813953 L141.167571,15.5813953 L141.05156,15.5813953 L141.05156,12.3488372 L140.72673,12.0232558 L133.116418,12.5348837 L133.116418,14.0465116 C133.580461,14.0775194 134.013569,14.1356589 134.415739,14.2209302 C134.81791,14.3062016 135.165943,14.4418605 135.459837,14.627907 C135.862008,14.9069767 136.175237,15.2790698 136.399525,15.744186 C136.623813,16.2093023 136.735957,16.6821705 136.735957,17.1627907 L136.735957,17.1627907 L136.735957,31.3255814 C136.735957,31.8837209 136.631547,32.3372093 136.422727,32.6860465 C136.213908,33.0348837 135.892944,33.2790698 135.459837,33.4186047 C135.181411,33.5116279 134.852714,33.5736434 134.473745,33.6046512 C134.094776,33.6356589 133.727408,33.6666667 133.371642,33.6976744 L133.371642,33.6976744 L133.371642,35.2325581 L145.436771,35.2325581 Z M163.766486,35.8372093 C165.854681,35.8372093 167.703121,35.2945736 169.311805,34.2093023 C170.920488,33.124031 172.204342,31.6666667 173.163365,29.8372093 L173.163365,29.8372093 L171.539213,28.8372093 C170.611126,30.5116279 169.648236,31.6705426 168.650543,32.3139535 C167.652849,32.9573643 166.465672,33.2790698 165.089009,33.2790698 C163.743284,33.2790698 162.583175,33.0193798 161.608684,32.5 C160.634193,31.9806202 159.845319,31.2713178 159.242062,30.372093 C158.623338,29.4418605 158.170896,28.3643411 157.884735,27.1395349 C157.598575,25.9147287 157.455495,24.5503876 157.455495,23.0465116 L157.455495,23.0465116 L172.606513,23.0465116 L172.606513,21.5116279 C172.606513,20.1317829 172.432497,18.8527132 172.084464,17.6744186 C171.736431,16.496124 171.206649,15.4728682 170.495115,14.6046512 C169.752646,13.6899225 168.785889,12.9689922 167.594844,12.4418605 C166.403799,11.9147287 164.972999,11.6511628 163.302442,11.6511628 C161.67829,11.6511628 160.212687,11.9883721 158.905631,12.6627907 C157.598575,13.3372093 156.504206,14.2248062 155.622524,15.3255814 C154.709905,16.4728682 154.017707,17.7635659 153.545929,19.1976744 C153.074152,20.6317829 152.838263,22.0930233 152.838263,23.5813953 C152.838263,25.2403101 153.058684,26.8139535 153.499525,28.3023256 C153.940366,29.7906977 154.609362,31.0930233 155.506513,32.2093023 C156.403664,33.3255814 157.544437,34.2093023 158.928833,34.8604651 C160.313229,35.5116279 161.92578,35.8372093 163.766486,35.8372093 Z M168.035685,21.0930233 L157.455495,21.0930233 C157.548304,18.6744186 158.132225,16.7868217 159.207259,15.4302326 C160.282293,14.0736434 161.631886,13.3953488 163.256038,13.3953488 C164.230529,13.3953488 165.027137,13.620155 165.645862,14.0697674 C166.264586,14.5193798 166.751832,15.1007752 167.107598,15.8139535 C167.432429,16.4806202 167.668318,17.3100775 167.815265,18.3023256 C167.962212,19.2945736 168.035685,20.2248062 168.035685,21.0930233 L168.035685,21.0930233 Z M181.887381,35.8139535 C183.511533,35.8139535 184.899796,35.5193798 186.052171,34.9302326 C187.204545,34.3410853 188.283446,33.4883721 189.288874,32.372093 L189.288874,32.372093 L189.428087,32.372093 C189.629172,33.4573643 190.089349,34.2829457 190.808616,34.8488372 C191.527883,35.4147287 192.490773,35.6976744 193.697286,35.6976744 C194.393351,35.6976744 195.015943,35.6162791 195.565061,35.4534884 C196.114179,35.2906977 196.752239,35.0775194 197.47924,34.8139535 L197.47924,34.8139535 L197.47924,33.3255814 C196.953324,33.3255814 196.439009,33.3178295 195.936296,33.3023256 C195.433582,33.2868217 195.066214,33.2093023 194.834193,33.0697674 C194.401085,32.8217054 194.080122,32.5193798 193.871303,32.1627907 C193.662483,31.8062016 193.558073,31.3255814 193.558073,30.7209302 C193.558073,28.6899225 193.581275,26.8178295 193.62768,25.1046512 C193.674084,23.3914729 193.697286,21.4263566 193.697286,19.2093023 C193.697286,17.6589147 193.492334,16.3914729 193.082429,15.4069767 C192.672524,14.4224806 192.073134,13.6434109 191.284261,13.0697674 C190.495387,12.4806202 189.617571,12.0968992 188.650814,11.9186047 C187.684057,11.7403101 186.551018,11.6511628 185.251696,11.6511628 C184.308141,11.6511628 183.341384,11.8023256 182.351425,12.1046512 C181.361465,12.4069767 180.518453,12.7751938 179.822388,13.2093023 C179.018046,13.7209302 178.364518,14.3023256 177.861805,14.9534884 C177.359091,15.6046512 177.107734,16.2868217 177.107734,17 C177.107734,17.6821705 177.289484,18.2984496 177.652985,18.8488372 C178.016486,19.3992248 178.584939,19.6744186 179.358345,19.6744186 C180.224559,19.6744186 180.901289,19.4496124 181.388535,19 C181.87578,18.5503876 182.119403,18.0542636 182.119403,17.5116279 C182.119403,17 182.045929,16.4418605 181.898982,15.8372093 C181.752035,15.2325581 181.678562,14.7751938 181.678562,14.4651163 C181.926052,14.2015504 182.355292,13.9496124 182.966282,13.7093023 C183.577273,13.4689922 184.238535,13.3488372 184.950068,13.3488372 C185.986431,13.3488372 186.786906,13.5620155 187.351493,13.9883721 C187.916079,14.4147287 188.353053,14.9147287 188.662415,15.4883721 C188.940841,16 189.122592,16.5426357 189.207666,17.1162791 C189.292741,17.6899225 189.335278,18.0775194 189.335278,18.2790698 L189.335278,18.2790698 L189.335278,20.5813953 C188.592809,20.9844961 187.158141,21.5426357 185.031275,22.255814 C182.90441,22.9689922 181.492944,23.4573643 180.796879,23.7209302 C180.240027,23.9379845 179.644505,24.2286822 179.010312,24.5930233 C178.376119,24.9573643 177.865672,25.372093 177.478969,25.8372093 C176.983989,26.3953488 176.612754,27.0232558 176.365265,27.7209302 C176.117775,28.4186047 175.99403,29.2093023 175.99403,30.0930233 C175.99403,31.7984496 176.547015,33.1782946 177.652985,34.2325581 C178.758955,35.2868217 180.170421,35.8139535 181.887381,35.8139535 Z M184.230801,33.255814 C183.194437,33.255814 182.339824,32.9534884 181.666961,32.3488372 C180.994098,31.744186 180.657666,30.7984496 180.657666,29.5116279 C180.657666,28.5193798 180.881954,27.6627907 181.330529,26.9418605 C181.779104,26.2209302 182.390095,25.5968992 183.163501,25.0697674 C184.014247,24.5116279 184.9346,24.0465116 185.924559,23.6744186 C186.914518,23.3023256 188.066893,22.9224806 189.381682,22.5348837 L189.381682,22.5348837 L189.242469,30.5581395 C188.670149,31.2868217 187.96635,31.9186047 187.131072,32.4534884 C186.295794,32.9883721 185.329037,33.255814 184.230801,33.255814 Z M207.7346,35.7209302 C209.033921,35.7209302 210.132157,35.5775194 211.029308,35.2906977 C211.926459,35.003876 212.877748,34.6511628 213.883175,34.2325581 L213.883175,34.2325581 L213.883175,32.5348837 C213.573813,32.6434109 213.04403,32.7325581 212.293826,32.8023256 C211.543623,32.872093 210.97517,32.9069767 210.588467,32.9069767 C209.753189,32.9069767 209.08806,32.7906977 208.59308,32.5581395 C208.0981,32.3255814 207.726866,31.9844961 207.479376,31.5348837 C207.216418,31.0542636 207.050136,30.4922481 206.980529,29.8488372 C206.910923,29.2054264 206.876119,28.4031008 206.876119,27.4418605 L206.876119,27.4418605 L206.876119,14.627907 L213.395929,14.627907 L213.395929,12.3953488 L206.829715,12.3953488 L206.829715,5.25581395 L202.60692,5.25581395 L202.60692,12.3953488 L198.384125,12.3953488 L198.384125,14.627907 L202.514111,14.627907 L202.514111,30.1627907 C202.514111,31.9302326 202.904681,33.2984496 203.685821,34.2674419 C204.466961,35.2364341 205.816554,35.7209302 207.7346,35.7209302 Z M221.331072,6.27906977 C222.181818,6.27906977 222.897218,5.9496124 223.477273,5.29069767 C224.057327,4.63178295 224.347354,3.86046512 224.347354,2.97674419 C224.347354,2.18604651 224.065061,1.49224806 223.500475,0.895348837 C222.935889,0.298449612 222.212754,0 221.331072,0 C220.542198,0 219.857734,0.317829457 219.27768,0.953488372 C218.697626,1.58914729 218.407598,2.33333333 218.407598,3.18604651 C218.407598,3.99224806 218.697626,4.70930233 219.27768,5.3372093 C219.857734,5.96511628 220.542198,6.27906977 221.331072,6.27906977 Z M227.270828,35.2325581 L227.270828,33.6976744 C226.868657,33.6666667 226.505156,33.6085271 226.180326,33.5232558 C225.855495,33.4379845 225.522931,33.3255814 225.182632,33.1860465 C224.734057,33.0155039 224.40536,32.751938 224.19654,32.3953488 C223.98772,32.0387597 223.883311,31.5891473 223.883311,31.0465116 L223.883311,31.0465116 L223.883311,12.3488372 L223.55848,12.0232558 L215.484125,12.5348837 L215.484125,14.0465116 C215.948168,14.0775194 216.458616,14.1589147 217.015468,14.2906977 C217.57232,14.4224806 217.997693,14.5813953 218.291588,14.7674419 C218.693758,15.0465116 219.006988,15.3914729 219.231275,15.8023256 C219.455563,16.2131783 219.567707,16.6666667 219.567707,17.1627907 L219.567707,17.1627907 L219.567707,31.3255814 C219.567707,31.8837209 219.463297,32.3372093 219.254478,32.6860465 C219.045658,33.0348837 218.724695,33.2790698 218.291588,33.4186047 C218.013161,33.5116279 217.684464,33.5736434 217.305495,33.6046512 C216.926526,33.6356589 216.559159,33.6666667 216.203392,33.6976744 L216.203392,33.6976744 L216.203392,35.2325581 L227.270828,35.2325581 Z M241.261737,35.4418605 C241.555631,34.5426357 241.876594,33.6046512 242.224627,32.627907 C242.572659,31.6511628 242.901357,30.8062016 243.210719,30.0930233 C244.262551,27.6124031 245.275712,25.244186 246.250204,22.9883721 C247.224695,20.7325581 248.16825,18.5658915 249.080868,16.4883721 C249.529444,15.5271318 250.066961,14.8565891 250.693419,14.4767442 C251.319878,14.0968992 251.98114,13.8449612 252.677205,13.7209302 L252.677205,13.7209302 L252.677205,12.3023256 L243.929986,12.3023256 L243.929986,13.7906977 C244.14654,13.8217054 244.424966,13.875969 244.765265,13.9534884 C245.105563,14.0310078 245.453596,14.1472868 245.809362,14.3023256 C246.165129,14.4573643 246.470624,14.6395349 246.725848,14.8488372 C246.981072,15.0581395 247.108684,15.2945736 247.108684,15.5581395 C247.108684,15.9302326 247.039077,16.2984496 246.899864,16.6627907 C246.760651,17.0271318 246.613704,17.4186047 246.459023,17.8372093 C245.484532,20.2868217 244.57578,22.503876 243.732768,24.4883721 C242.889756,26.4728682 242.189824,28.1317829 241.632972,29.4651163 C240.90597,27.7286822 239.962415,25.4418605 238.802307,22.6046512 C237.642198,19.7674419 236.745047,17.5581395 236.110855,15.9767442 C236.033514,15.7286822 235.956174,15.5077519 235.878833,15.3139535 C235.801493,15.120155 235.762822,15 235.762822,14.9534884 C235.762822,14.6434109 236.110855,14.3992248 236.80692,14.2209302 C237.502985,14.0426357 238.083039,13.9457364 238.547083,13.9302326 L238.547083,13.9302326 L238.547083,12.3023256 L227.966893,12.3023256 L227.966893,13.8372093 C228.662958,13.9457364 229.355156,14.1976744 230.043487,14.5930233 C230.731818,14.9883721 231.230665,15.5426357 231.540027,16.255814 C232.870285,19.4031008 234.154138,22.4767442 235.391588,25.4767442 C236.629037,28.4767442 237.982497,31.7984496 239.451967,35.4418605 L239.451967,35.4418605 L241.261737,35.4418605 Z M264.603121,35.8372093 C266.691316,35.8372093 268.539756,35.2945736 270.14844,34.2093023 C271.757123,33.124031 273.040977,31.6666667 274,29.8372093 L274,29.8372093 L272.375848,28.8372093 C271.447761,30.5116279 270.484871,31.6705426 269.487178,32.3139535 C268.489484,32.9573643 267.302307,33.2790698 265.925645,33.2790698 C264.579919,33.2790698 263.41981,33.0193798 262.445319,32.5 C261.470828,31.9806202 260.681954,31.2713178 260.078697,30.372093 C259.459973,29.4418605 259.007531,28.3643411 258.72137,27.1395349 C258.43521,25.9147287 258.29213,24.5503876 258.29213,23.0465116 L258.29213,23.0465116 L273.443148,23.0465116 L273.443148,21.5116279 C273.443148,20.1317829 273.269132,18.8527132 272.921099,17.6744186 C272.573066,16.496124 272.043284,15.4728682 271.33175,14.6046512 C270.589281,13.6899225 269.622524,12.9689922 268.431479,12.4418605 C267.240434,11.9147287 265.809634,11.6511628 264.139077,11.6511628 C262.514925,11.6511628 261.049322,11.9883721 259.742266,12.6627907 C258.43521,13.3372093 257.340841,14.2248062 256.459159,15.3255814 C255.54654,16.4728682 254.854342,17.7635659 254.382564,19.1976744 C253.910787,20.6317829 253.674898,22.0930233 253.674898,23.5813953 C253.674898,25.2403101 253.895319,26.8139535 254.33616,28.3023256 C254.777001,29.7906977 255.445997,31.0930233 256.343148,32.2093023 C257.240299,33.3255814 258.381072,34.2093023 259.765468,34.8604651 C261.149864,35.5116279 262.762415,35.8372093 264.603121,35.8372093 Z M268.87232,21.0930233 L258.29213,21.0930233 C258.384939,18.6744186 258.96886,16.7868217 260.043894,15.4302326 C261.118928,14.0736434 262.468521,13.3953488 264.092673,13.3953488 C265.067164,13.3953488 265.863772,13.620155 266.482497,14.0697674 C267.101221,14.5193798 267.588467,15.1007752 267.944233,15.8139535 C268.269064,16.4806202 268.504953,17.3100775 268.6519,18.3023256 C268.798847,19.2945736 268.87232,20.2248062 268.87232,21.0930233 L268.87232,21.0930233 Z" id="Creative" fill="#000000"></path>
        </g>
    </g>
</svg>